<svg width="13" height="23" viewBox="0 0 13 23" fill="none" xmlns="http://www.w3.org/2000/svg">
<path d="M9.27778 1.77777V0.819441C9.27963 0.764716 9.27068 0.710162 9.25144 0.658899C9.2322 0.607635 9.20304 0.560667 9.16563 0.52068C9.12822 0.480693 9.0833 0.448471 9.03343 0.425857C8.98356 0.403242 8.92973 0.390679 8.875 0.388885H4.125C4.07027 0.390679 4.01644 0.403242 3.96657 0.425857C3.9167 0.448471 3.87178 0.480693 3.83437 0.52068C3.79696 0.560667 3.7678 0.607635 3.74856 0.658899C3.72932 0.710162 3.72037 0.764716 3.72222 0.819441V1.77777H0.944444C0.757087 1.79328 0.582201 1.87794 0.453835 2.0153C0.325469 2.15265 0.252809 2.33285 0.25 2.52083V21.9653C0.262324 22.1409 0.340894 22.3053 0.469816 22.4252C0.598738 22.5451 0.768387 22.6115 0.944444 22.6111H12.0556C12.2327 22.6114 12.4033 22.544 12.5324 22.4227C12.6615 22.3013 12.7394 22.1352 12.75 21.9583V2.51389C12.7455 2.32712 12.6721 2.14861 12.5439 2.01272C12.4157 1.87683 12.2417 1.79315 12.0556 1.77777H9.27778ZM8.06944 16.6667C8.16798 16.8647 8.18383 17.0937 8.1135 17.3034C8.04318 17.513 7.89244 17.6862 7.69444 17.7847C7.49645 17.8833 7.26743 17.8991 7.05775 17.8288C6.84807 17.7584 6.67492 17.6077 6.57639 17.4097L2.78472 9.80555L6.95139 10.5L5.36111 7.72222C5.30639 7.62738 5.27089 7.52268 5.25664 7.41412C5.24238 7.30556 5.24964 7.19525 5.27802 7.08949C5.30639 6.98374 5.35532 6.8846 5.422 6.79776C5.48869 6.71091 5.57182 6.63805 5.66667 6.58333C5.76151 6.52861 5.8662 6.49311 5.97477 6.47885C6.08333 6.4646 6.19364 6.47186 6.29939 6.50024C6.40515 6.52861 6.50428 6.57754 6.59113 6.64422C6.67798 6.7109 6.75084 6.79404 6.80556 6.88889L10.1597 12.7014L5.73611 11.9861L8.06944 16.6667Z" fill="#E6FE58"/>
</svg>
